<?xml version="1.0" encoding="UTF-8"?>
<svg xmlns="http://www.w3.org/2000/svg" xmlns:xlink="http://www.w3.org/1999/xlink" width="25px" height="25px" viewBox="0 0 25 25" version="1.1">
<defs>
<filter id="alpha" filterUnits="objectBoundingBox" x="0%" y="0%" width="100%" height="100%">
  <feColorMatrix type="matrix" in="SourceGraphic" values="0 0 0 0 1 0 0 0 0 1 0 0 0 0 1 0 0 0 1 0"/>
</filter>
<mask id="mask0">
  <g filter="url(#alpha)">
<rect x="0" y="0" width="25" height="25" style="fill:rgb(0%,0%,0%);fill-opacity:0.2;stroke:none;"/>
  </g>
</mask>
<clipPath id="clip1">
  <rect x="0" y="0" width="25" height="25"/>
</clipPath>
<g id="surface5" clip-path="url(#clip1)">
<path style=" stroke:none;fill-rule:nonzero;fill:rgb(0%,0%,0%);fill-opacity:1;" d="M 2.34375 19.53125 L 2.34375 20.3125 C 2.34375 21.609375 3.390625 22.65625 4.6875 22.65625 L 20.3125 22.65625 L 22.65625 25 L 22.65625 24.21875 L 20.3125 21.875 L 4.6875 21.875 C 3.390625 21.875 2.34375 20.828125 2.34375 19.53125 Z M 2.34375 19.53125 "/>
</g>
<mask id="mask1">
  <g filter="url(#alpha)">
<rect x="0" y="0" width="25" height="25" style="fill:rgb(0%,0%,0%);fill-opacity:0.2;stroke:none;"/>
  </g>
</mask>
<clipPath id="clip2">
  <rect x="0" y="0" width="25" height="25"/>
</clipPath>
<g id="surface8" clip-path="url(#clip2)">
<path style=" stroke:none;fill-rule:nonzero;fill:rgb(100%,100%,100%);fill-opacity:1;" d="M 4.6875 1.5625 C 3.390625 1.5625 2.34375 2.609375 2.34375 3.90625 L 2.34375 4.6875 C 2.34375 3.390625 3.390625 2.34375 4.6875 2.34375 L 20.3125 2.34375 C 21.609375 2.34375 22.65625 3.390625 22.65625 4.6875 L 22.65625 3.90625 C 22.65625 2.609375 21.609375 1.5625 20.3125 1.5625 Z M 4.6875 1.5625 "/>
</g>
<mask id="mask2">
  <g filter="url(#alpha)">
<rect x="0" y="0" width="25" height="25" style="fill:rgb(0%,0%,0%);fill-opacity:0.2;stroke:none;"/>
  </g>
</mask>
<clipPath id="clip3">
  <rect x="0" y="0" width="25" height="25"/>
</clipPath>
<g id="surface11" clip-path="url(#clip3)">
<path style=" stroke:none;fill-rule:evenodd;fill:rgb(0%,0%,0%);fill-opacity:1;" d="M 17.1875 19.53125 L 22.65625 25 L 22.65625 24.21875 L 17.96875 19.53125 Z M 17.1875 19.53125 "/>
</g>
<mask id="mask3">
  <g filter="url(#alpha)">
<rect x="0" y="0" width="25" height="25" style="fill:rgb(0%,0%,0%);fill-opacity:0.2;stroke:none;"/>
  </g>
</mask>
<clipPath id="clip4">
  <rect x="0" y="0" width="25" height="25"/>
</clipPath>
<g id="surface14" clip-path="url(#clip4)">
<path style=" stroke:none;fill-rule:nonzero;fill:rgb(0%,0%,0%);fill-opacity:1;" d="M 11.074219 7.03125 C 11.074219 7.03125 9.527344 6.996094 7.890625 8.203125 C 6.25 9.40625 5.46875 11.898438 5.46875 15.488281 C 5.46875 15.488281 7.207031 17.109375 9.722656 17.1875 C 9.722656 17.1875 10.144531 16.691406 10.484375 16.265625 C 9.039062 15.835938 8.492188 14.558594 8.492188 14.558594 C 9.824219 15.300781 10.726562 15.613281 12.109375 15.625 C 13.492188 15.613281 15.175781 15.300781 16.507812 14.558594 C 16.507812 14.558594 15.960938 15.835938 14.515625 16.265625 C 14.855469 16.691406 15.277344 17.1875 15.277344 17.1875 C 17.792969 17.109375 19.53125 15.488281 19.53125 15.488281 C 19.53125 11.898438 18.75 9.40625 17.109375 8.203125 C 15.472656 6.996094 13.925781 7.03125 13.925781 7.03125 L 13.8125 7.164062 C 15.859375 7.738281 16.792969 9.019531 16.792969 9.019531 C 16.792969 9.019531 16.542969 8.886719 16.121094 8.707031 C 14.84375 8.09375 13.28125 7.8125 12.109375 7.8125 C 10.9375 7.8125 10.15625 8.09375 8.878906 8.707031 C 8.457031 8.886719 8.207031 9.019531 8.207031 9.019531 C 8.207031 9.019531 9.140625 7.738281 11.1875 7.164062 Z M 10.546875 11.71875 C 11.203125 11.71875 11.730469 12.242188 11.71875 12.890625 C 11.71875 13.539062 11.203125 14.0625 10.546875 14.0625 C 9.902344 14.0625 9.375 13.539062 9.375 12.890625 C 9.375 12.242188 9.890625 11.71875 10.546875 11.71875 Z M 14.453125 11.71875 C 15.109375 11.71875 15.625 12.242188 15.625 12.890625 C 15.625 13.539062 15.097656 14.0625 14.453125 14.0625 C 13.796875 14.0625 13.28125 13.539062 13.28125 12.890625 C 13.269531 12.242188 13.796875 11.71875 14.453125 11.71875 Z M 14.453125 11.71875 "/>
</g>
</defs>
<g id="surface1">
<path style=" stroke:none;fill-rule:nonzero;fill:rgb(92.54902%,63.921569%,21.568627%);fill-opacity:1;" d="M 4.6875 1.5625 L 20.3125 1.5625 C 21.605469 1.5625 22.65625 2.613281 22.65625 3.90625 L 22.65625 19.53125 C 22.65625 20.824219 21.605469 21.875 20.3125 21.875 L 4.6875 21.875 C 3.394531 21.875 2.34375 20.824219 2.34375 19.53125 L 2.34375 3.90625 C 2.34375 2.613281 3.394531 1.5625 4.6875 1.5625 Z M 4.6875 1.5625 "/>
<use xlink:href="#surface5" mask="url(#mask0)"/>
<path style=" stroke:none;fill-rule:evenodd;fill:rgb(92.54902%,63.921569%,21.568627%);fill-opacity:1;" d="M 22.65625 24.21875 L 17.1875 18.75 L 22.65625 18.75 Z M 22.65625 24.21875 "/>
<use xlink:href="#surface8" mask="url(#mask1)"/>
<use xlink:href="#surface11" mask="url(#mask2)"/>
<use xlink:href="#surface14" mask="url(#mask3)"/>
<path style=" stroke:none;fill-rule:nonzero;fill:rgb(100%,100%,100%);fill-opacity:1;" d="M 11.074219 6.25 C 11.074219 6.25 9.527344 6.214844 7.890625 7.421875 C 6.25 8.625 5.46875 11.117188 5.46875 14.707031 C 5.46875 14.707031 7.207031 16.328125 9.722656 16.40625 C 9.722656 16.40625 10.144531 15.910156 10.484375 15.484375 C 9.039062 15.054688 8.492188 13.777344 8.492188 13.777344 C 9.824219 14.519531 10.726562 14.832031 12.109375 14.84375 C 13.492188 14.832031 15.175781 14.519531 16.507812 13.777344 C 16.507812 13.777344 15.960938 15.054688 14.515625 15.484375 C 14.855469 15.910156 15.277344 16.40625 15.277344 16.40625 C 17.792969 16.328125 19.53125 14.707031 19.53125 14.707031 C 19.53125 11.117188 18.75 8.625 17.109375 7.421875 C 15.472656 6.214844 13.925781 6.25 13.925781 6.25 L 13.8125 6.382812 C 15.859375 6.957031 16.792969 8.238281 16.792969 8.238281 C 16.792969 8.238281 16.542969 8.105469 16.121094 7.925781 C 14.84375 7.3125 13.28125 7.03125 12.109375 7.03125 C 10.9375 7.03125 10.15625 7.3125 8.878906 7.925781 C 8.457031 8.105469 8.207031 8.238281 8.207031 8.238281 C 8.207031 8.238281 9.140625 6.957031 11.1875 6.382812 Z M 10.546875 10.9375 C 11.203125 10.9375 11.730469 11.460938 11.71875 12.109375 C 11.71875 12.757812 11.203125 13.28125 10.546875 13.28125 C 9.902344 13.28125 9.375 12.757812 9.375 12.109375 C 9.375 11.460938 9.890625 10.9375 10.546875 10.9375 Z M 14.453125 10.9375 C 15.109375 10.9375 15.625 11.460938 15.625 12.109375 C 15.625 12.757812 15.097656 13.28125 14.453125 13.28125 C 13.796875 13.28125 13.28125 12.757812 13.28125 12.109375 C 13.269531 11.460938 13.796875 10.9375 14.453125 10.9375 Z M 14.453125 10.9375 "/>
</g>
</svg>
