<?xml version="1.0" encoding="UTF-8" standalone="no"?>
<!-- Created with Inkscape (http://www.inkscape.org/) -->

<svg
   version="1.1"
   id="svg2"
   xml:space="preserve"
   width="934.98932"
   height="347.33466"
   viewBox="0 0 934.98931 347.33465"
   sodipodi:docname="b2e6c44eba033e9a24b5367c13acdff8.eps"
   xmlns:inkscape="http://www.inkscape.org/namespaces/inkscape"
   xmlns:sodipodi="http://sodipodi.sourceforge.net/DTD/sodipodi-0.dtd"
   xmlns="http://www.w3.org/2000/svg"
   xmlns:svg="http://www.w3.org/2000/svg"><defs
     id="defs6" /><sodipodi:namedview
     id="namedview4"
     pagecolor="#ffffff"
     bordercolor="#666666"
     borderopacity="1.0"
     inkscape:pageshadow="2"
     inkscape:pageopacity="0.0"
     inkscape:pagecheckerboard="0" /><g
     id="g8"
     inkscape:groupmode="layer"
     inkscape:label="ink_ext_XXXXXX"
     transform="matrix(1.3333333,0,0,-1.3333333,0,347.33466)"><g
       id="g10"
       transform="scale(0.1)"><path
         d="m 0,2261.68 v 57.91 L 2497.91,2605.01 1377.91,0 h -63.75 L 960.414,847.922 c 0,0 133.116,27.098 134.586,99.168 0.83,40.832 -41.67,63.34 -54.59,68.75 0,0 189.36,6.94 197.5,91.66 6.25,65.01 -79.16,68.34 -101.66,64.59 0,0 2.29,44.17 168.54,95.42 0,0 209.2,56.76 206.87,173.12 -1.25,62.5 -63.75,85.63 -118.75,84.38 0,0 200.86,172.04 190,282.5 -5.61,57.14 -66.55,89.13 -116.55,88.29 0,0 -17.15,-1.28 -43.22,-1.19 -16.03,0.06 -30.51,0.17 -36.88,11.71 -8.96,16.25 12.28,54.32 18.53,67.44 6.25,13.13 36.86,112.23 -37.18,167.04 -80.62,59.69 -174.37,11.25 -230.1,-94.69 0,0 -10.84,-26.87 -22.3,-27.08 -20.41,-0.38 -50.42,81.61 -116.671,79.11 0,0 -141.113,18.4 -120.625,-302.3 3.551,-55.56 -14.207,-51.91 -26.863,-45.98 -13.664,6.41 -61.664,55.63 -107.824,43.9 -48.172,-12.24 -72.188,-98.75 -34.688,-201.25 37.5,-102.5 87.574,-244.74 71.047,-253.75 -7.453,-4.06 -25,19.75 -33.75,36.25 -6.563,12.38 -289.039,600.52 -377.91,717.98 C 278.551,2211.11 141.262,2259.24 40.4258,2261.95 19.5703,2262.51 0,2261.68 0,2261.68"
         style="fill:#214074;fill-opacity:1;fill-rule:nonzero;stroke:none"
         id="path12" /><path
         d="m 2642.7,1912.93 c -12.32,28.75 -24.25,48.9 -35.8,60.45 -11.55,11.55 -25.03,18.35 -40.43,20.41 v 15.39 c 2.06,0 7.06,0.26 15.02,0.78 7.96,0.5 13.73,0.76 17.32,0.76 13.35,0 27.07,-1.03 41.2,-3.07 14.11,-2.06 27.84,-6.43 41.19,-13.1 13.34,-6.67 26.05,-16.43 38.12,-29.26 12.06,-12.83 22.71,-30.29 31.95,-52.36 l 121.99,-287.97 162.91,378.06 h 38.5 l -221.76,-515.9 h -30.8 l -179.41,425.81"
         style="fill:#214074;fill-opacity:1;fill-rule:nonzero;stroke:none"
         id="path14" /><path
         d="m 3467.38,1748.93 c 0,74.94 -12.84,132.82 -38.5,173.63 -25.68,40.81 -61.87,61.21 -108.57,61.21 -46.72,0 -82.78,-20.4 -108.19,-61.21 -25.41,-40.81 -38.11,-98.69 -38.11,-173.63 0,-74.96 12.7,-132.83 38.11,-173.64 25.41,-40.81 61.47,-61.22 108.19,-61.22 46.7,0 82.89,20.41 108.57,61.22 25.66,40.81 38.5,98.68 38.5,173.64 z m -401.17,0 c 0,37.98 6.02,73.4 18.09,106.26 12.06,32.84 29.26,61.33 51.59,85.47 22.33,24.12 49.02,43.11 80.08,56.97 31.05,13.87 65.84,20.8 104.34,20.8 38.5,0 73.27,-6.93 104.33,-20.8 31.06,-13.86 57.62,-32.85 79.7,-56.97 22.06,-24.14 39.13,-52.63 51.21,-85.47 12.05,-32.86 18.09,-68.28 18.09,-106.26 0,-38 -6.04,-73.42 -18.09,-106.26 -12.08,-32.87 -29.15,-61.35 -51.21,-85.48 -22.08,-24.13 -48.64,-43.12 -79.7,-56.97 -31.06,-13.87 -65.83,-20.8 -104.33,-20.8 -38.5,0 -73.29,6.93 -104.34,20.8 -31.06,13.85 -57.75,32.84 -80.08,56.97 -22.33,24.13 -39.53,52.61 -51.59,85.48 -12.07,32.84 -18.09,68.26 -18.09,106.26"
         style="fill:#214074;fill-opacity:1;fill-rule:nonzero;stroke:none"
         id="path16" /><path
         d="m 4008.68,1529.47 v -34.65 h -365.75 v 408.11 c 0,23.1 -3.22,41.7 -9.63,55.82 -6.42,14.11 -21.17,21.17 -44.27,21.17 h -7.7 v 23.1 h 92.4 c 13.34,0 24.51,-1.67 33.49,-5 8.98,-3.34 16.17,-8.85 21.56,-16.56 5.39,-7.69 9.11,-17.97 11.17,-30.8 2.05,-12.83 3.08,-28.75 3.08,-47.73 v -373.46 h 265.65"
         style="fill:#214074;fill-opacity:1;fill-rule:nonzero;stroke:none"
         id="path18" /><path
         d="m 4452.96,1531.02 c -29.77,-17.98 -61.35,-31.07 -94.7,-39.28 -33.37,-8.2 -69.82,-12.32 -109.34,-12.32 -40.04,0 -77,7.2 -110.88,21.57 -33.89,14.36 -63.14,34 -87.78,58.9 -24.64,24.89 -43.89,54.15 -57.76,87.78 -13.85,33.62 -20.79,69.94 -20.79,108.96 0,36.96 6.04,71.34 18.1,103.17 12.06,31.83 29.27,59.55 51.59,83.16 22.33,23.61 49.01,42.09 80.08,55.44 31.05,13.35 65.84,20.03 104.33,20.03 48.26,0 87.79,-6.29 118.59,-18.87 30.8,-12.59 53.38,-27.08 67.75,-43.51 5.13,-6.67 8.99,-14.37 11.55,-23.09 2.57,-8.74 4.5,-17.85 5.79,-27.34 1.27,-9.51 2.04,-19.13 2.3,-28.88 0.25,-9.75 0.39,-18.99 0.39,-27.72 h -23.1 c -9.76,47.23 -27.72,81.49 -53.9,102.8 -26.18,21.3 -61.6,31.95 -106.26,31.95 -30.8,0 -56.87,-6.29 -78.16,-18.86 -21.3,-12.59 -38.76,-29.39 -52.36,-50.44 -13.6,-21.05 -23.48,-45.3 -29.65,-72.76 -6.15,-27.47 -9.24,-55.83 -9.24,-85.08 0,-46.72 4.36,-85.86 13.1,-117.43 8.72,-31.57 20.78,-56.86 36.18,-75.84 15.4,-19 33.37,-32.61 53.91,-40.82 20.53,-8.21 42.6,-12.31 66.22,-12.31 23.09,0 42.85,1.79 59.29,5.39 16.42,3.58 31.3,8.46 44.65,14.62 v 137.06 c 0,10.79 1.66,21.68 5.01,32.73 3.33,11.03 10.27,21.04 20.8,30.03 10.5,8.98 25.52,16.42 45.03,22.33 19.51,5.9 45.69,8.86 78.55,8.86 v -19.26 c -17.46,0 -30.03,-6.42 -37.74,-19.24 -7.69,-12.84 -11.55,-30.8 -11.55,-53.91 v -137.82"
         style="fill:#214074;fill-opacity:1;fill-rule:nonzero;stroke:none"
         id="path20" /><path
         d="m 4911.88,1748.93 c 0,74.94 -12.83,132.82 -38.5,173.63 -25.67,40.81 -61.86,61.21 -108.57,61.21 -46.71,0 -82.78,-20.4 -108.19,-61.21 -25.41,-40.81 -38.11,-98.69 -38.11,-173.63 0,-74.96 12.7,-132.83 38.11,-173.64 25.41,-40.81 61.48,-61.22 108.19,-61.22 46.71,0 82.9,20.41 108.57,61.22 25.67,40.81 38.5,98.68 38.5,173.64 z m -401.16,0 c 0,37.98 6.02,73.4 18.09,106.26 12.05,32.84 29.26,61.33 51.58,85.47 22.34,24.12 49.03,43.11 80.09,56.97 31.05,13.87 65.83,20.8 104.33,20.8 38.5,0 73.27,-6.93 104.33,-20.8 31.06,-13.86 57.62,-32.85 79.7,-56.97 22.07,-24.14 39.14,-52.63 51.21,-85.47 12.05,-32.86 18.09,-68.28 18.09,-106.26 0,-38 -6.04,-73.42 -18.09,-106.26 -12.07,-32.87 -29.14,-61.35 -51.21,-85.48 -22.08,-24.13 -48.64,-43.12 -79.7,-56.97 -31.06,-13.87 -65.83,-20.8 -104.33,-20.8 -38.5,0 -73.28,6.93 -104.33,20.8 -31.06,13.85 -57.75,32.84 -80.09,56.97 -22.32,24.13 -39.53,52.61 -51.58,85.48 -12.07,32.84 -18.09,68.26 -18.09,106.26"
         style="fill:#214074;fill-opacity:1;fill-rule:nonzero;stroke:none"
         id="path22" /><path
         d="m 5527.1,1531.02 c -29.78,-17.98 -61.34,-31.07 -94.7,-39.28 -33.38,-8.2 -69.83,-12.32 -109.34,-12.32 -40.04,0 -77.01,7.2 -110.88,21.57 -33.89,14.36 -63.14,34 -87.79,58.9 -24.64,24.89 -43.89,54.15 -57.75,87.78 -13.85,33.62 -20.79,69.94 -20.79,108.96 0,36.96 6.03,71.34 18.1,103.17 12.05,31.83 29.26,59.55 51.59,83.16 22.32,23.61 49.02,42.09 80.08,55.44 31.05,13.35 65.84,20.03 104.33,20.03 48.25,0 87.78,-6.29 118.58,-18.87 30.8,-12.59 53.38,-27.08 67.77,-43.51 5.12,-6.67 8.97,-14.37 11.54,-23.09 2.56,-8.74 4.5,-17.85 5.79,-27.34 1.27,-9.51 2.03,-19.13 2.3,-28.88 0.25,-9.75 0.39,-18.99 0.39,-27.72 h -23.1 c -9.77,47.23 -27.72,81.49 -53.91,102.8 -26.17,21.3 -61.6,31.95 -106.25,31.95 -30.8,0 -56.86,-6.29 -78.16,-18.86 -21.31,-12.59 -38.77,-29.39 -52.37,-50.44 -13.59,-21.05 -23.47,-45.3 -29.63,-72.76 -6.17,-27.47 -9.25,-55.83 -9.25,-85.08 0,-46.72 4.35,-85.86 13.1,-117.43 8.71,-31.57 20.78,-56.86 36.19,-75.84 15.39,-19 33.36,-32.61 53.89,-40.82 20.53,-8.21 42.62,-12.31 66.23,-12.31 23.09,0 42.85,1.79 59.28,5.39 16.42,3.58 31.31,8.46 44.67,14.62 v 137.06 c 0,10.79 1.66,21.68 5,32.73 3.33,11.03 10.27,21.04 20.8,30.03 10.5,8.98 25.52,16.42 45.03,22.33 19.52,5.9 45.69,8.86 78.54,8.86 v -19.26 c -17.46,0 -30.02,-6.42 -37.73,-19.24 -7.7,-12.84 -11.55,-30.8 -11.55,-53.91 v -137.82"
         style="fill:#214074;fill-opacity:1;fill-rule:nonzero;stroke:none"
         id="path24" /><path
         d="m 5780.43,1972.23 c -6.16,0 -12.32,-0.27 -18.48,-0.77 -6.16,-0.52 -11.55,-1.29 -16.17,-2.32 -5.65,-1.03 -10.78,-1.8 -15.4,-2.3 v -208.68 h 46.21 c 12.31,0 24.63,1.8 36.95,5.39 12.32,3.59 23.48,9.5 33.49,17.72 10.01,8.2 18.1,19.24 24.26,33.11 6.16,13.85 9.24,30.8 9.24,50.82 0,20.01 -3.08,36.82 -9.24,50.43 -6.16,13.59 -14.13,24.64 -23.87,33.11 -9.76,8.47 -20.53,14.5 -32.34,18.1 -11.82,3.58 -23.37,5.39 -34.65,5.39 z m -19.25,-244.87 h -30.8 v -232.54 h -100.87 v 408.11 c 0,23.1 -3.21,41.7 -9.62,55.82 -6.43,14.11 -21.18,21.17 -44.28,21.17 h -7.7 v 23.1 h 212.52 c 12.32,0 25.91,-0.51 40.81,-1.54 14.89,-1.03 30.03,-3.34 45.43,-6.93 15.4,-3.59 30.41,-8.6 45.04,-15.01 14.63,-6.42 27.59,-14.9 38.89,-25.41 11.29,-10.52 20.41,-23.36 27.33,-38.5 6.94,-15.15 10.4,-33.24 10.4,-54.29 0,-20.02 -3.73,-37.34 -11.17,-51.97 -7.44,-14.63 -17.2,-26.95 -29.26,-36.96 -12.06,-10.01 -25.53,-18.09 -40.42,-24.25 -14.9,-6.17 -29.53,-11.05 -43.89,-14.63 l 80.85,-134.75 c 9.74,-16.44 19.12,-29.92 28.1,-40.43 8.98,-10.53 17.58,-18.87 25.8,-25.02 8.21,-6.17 15.78,-10.66 22.72,-13.48 6.92,-2.83 13.21,-4.75 18.86,-5.78 v -19.25 c -4.12,-2.04 -11.43,-3.84 -21.95,-5.39 -10.53,-1.53 -20.66,-2.31 -30.41,-2.31 -13.36,0 -26.32,1.81 -38.89,5.4 -12.58,3.58 -24.9,9.74 -36.96,18.48 -12.06,8.72 -24.13,20.27 -36.19,34.65 -12.06,14.36 -24.51,32.07 -37.34,53.13 l -77,128.58"
         style="fill:#214074;fill-opacity:1;fill-rule:nonzero;stroke:none"
         id="path26" /><path
         d="m 6127.36,1669.61 h 174.96 l -85.16,200.98 z m 316.03,-77.76 c 9.24,-22.6 20.53,-40.56 33.88,-53.9 13.35,-13.36 28.75,-21.06 46.2,-23.11 v -19.24 c -4.11,-1.03 -9.88,-1.93 -17.32,-2.7 -7.45,-0.77 -14,-1.16 -19.63,-1.16 -12.33,0 -25.55,1.16 -39.66,3.47 -14.12,2.31 -27.99,6.93 -41.58,13.86 -13.61,6.93 -26.45,16.94 -38.5,30.03 -12.07,13.09 -22.71,30.67 -31.96,52.75 l -17.81,43.12 h -205.92 l -63.48,-140.15 h -38.5 l 227.15,508.2 h 34.65 l 172.48,-411.17"
         style="fill:#214074;fill-opacity:1;fill-rule:nonzero;stroke:none"
         id="path28" /><path
         d="m 6704.42,1972.23 c -7.7,0 -15.01,-0.27 -21.95,-0.77 -6.92,-0.52 -13.22,-1.29 -18.86,-2.32 -6.16,-1.03 -11.81,-1.8 -16.94,-2.3 v -435.82 c 5.13,-1.04 10.78,-2.06 16.94,-3.08 10.78,-1.54 24.37,-2.31 40.81,-2.31 h 7.7 c 26.68,0 51.33,5.12 73.92,15.4 22.59,10.26 42.09,25.02 58.52,44.27 16.42,19.25 29.26,42.73 38.5,70.45 9.24,27.73 13.86,58.78 13.86,93.18 0,33.87 -4.5,64.54 -13.47,92.01 -8.99,27.45 -21.7,50.94 -38.11,70.46 -16.44,19.5 -36.08,34.51 -58.91,45.04 -22.85,10.51 -48.13,15.79 -75.85,15.79 z m -10.01,30.79 c 52.87,0 99.07,-5.77 138.6,-17.32 39.52,-11.55 72.64,-28.11 99.33,-49.66 26.69,-21.57 46.71,-47.88 60.07,-78.93 13.34,-31.06 20.01,-66.1 20.01,-105.11 0,-37.99 -6.42,-72.76 -19.25,-104.33 -12.83,-31.57 -31.83,-58.65 -56.98,-81.23 -25.15,-22.6 -56.34,-40.18 -93.55,-52.75 -37.23,-12.59 -79.96,-18.87 -128.21,-18.87 h -167.85 v 408.11 c 0,23.1 -3.22,41.7 -9.63,55.82 -6.43,14.11 -21.18,21.17 -44.28,21.17 h -7.7 v 23.1 h 209.44"
         style="fill:#214074;fill-opacity:1;fill-rule:nonzero;stroke:none"
         id="path30" /><path
         d="m 2928.37,793.488 c 0.51,-53.398 10.91,-95.359 31.19,-125.898 20.27,-30.551 50.69,-45.809 91.24,-45.809 52.36,0 90.48,15.649 114.35,46.957 23.87,31.313 35.81,80.594 35.81,147.84 v 286.452 h 38.49 V 816.578 c 0,-36.449 -3.59,-68.789 -10.78,-97.019 -7.19,-28.227 -18.86,-52.239 -35.03,-71.989 -16.17,-19.769 -37.23,-34.789 -63.14,-45.05 -25.93,-10.25 -57.63,-15.391 -95.1,-15.391 -138.6,0 -207.9,76.473 -207.9,229.449 v 186.352 c 0,23.1 -3.21,41.7 -9.62,55.82 -6.43,14.11 -21.18,21.17 -44.28,21.17 v 23.11 h 84.7 c 13.34,0 24.51,-1.67 33.5,-5.01 8.97,-3.34 16.17,-8.85 21.56,-16.55 5.39,-7.7 9.1,-17.97 11.16,-30.81 2.05,-12.83 3.09,-28.75 3.09,-47.73 l 0.76,-209.442"
         style="fill:#214074;fill-opacity:1;fill-rule:nonzero;stroke:none"
         id="path32" /><path
         d="m 3700.67,748.832 v 354.198 h 38.5 V 592.512 h -35.42 L 3377.27,975.98 V 594.82 h -38.5 v 415.81 c 0,9.74 -1.03,18.86 -3.08,27.33 -2.05,8.48 -5.77,15.79 -11.16,21.94 -5.39,6.17 -12.59,11.04 -21.56,14.64 -8.99,3.59 -20.15,5.38 -33.49,5.38 h -3.86 v 23.11 h 53.9 c 29.26,0 53,-3.85 71.23,-11.55 18.21,-7.7 33.23,-19.25 45.04,-34.65 l 264.88,-307.998"
         style="fill:#214074;fill-opacity:1;fill-rule:nonzero;stroke:none"
         id="path34" /><path
         d="m 3829.25,1103.03 h 100.1 V 694.922 c 0,-23.09 3.2,-41.711 9.63,-55.82 6.41,-14.133 21.17,-21.18 44.28,-21.18 h 7.69 V 594.82 h -92.4 c -13.35,0 -24.52,1.551 -33.49,4.621 -8.99,3.079 -16.18,8.469 -21.57,16.18 -5.39,7.688 -9.11,17.949 -11.16,30.801 -2.06,12.816 -3.08,28.988 -3.08,48.5 v 408.108"
         style="fill:#214074;fill-opacity:1;fill-rule:nonzero;stroke:none"
         id="path36" /><path
         d="m 4025.59,1012.94 c -12.32,28.74 -24.25,48.9 -35.8,60.44 -11.55,11.55 -25.03,18.35 -40.43,20.41 v 15.4 c 2.05,0 7.06,0.25 15.02,0.77 7.96,0.5 13.73,0.76 17.32,0.76 13.34,0 27.07,-1.03 41.19,-3.07 14.12,-2.06 27.85,-6.43 41.2,-13.09 13.34,-6.68 26.05,-16.43 38.12,-29.27 12.05,-12.83 22.71,-30.29 31.95,-52.35 l 121.99,-287.991 162.92,378.081 h 38.49 L 4235.8,587.129 H 4205 l -179.41,425.811"
         style="fill:#214074;fill-opacity:1;fill-rule:nonzero;stroke:none"
         id="path38" /><path
         d="m 4787.11,1103.03 c 13.35,0 24.26,-1.81 32.73,-5.39 8.47,-3.6 15.13,-8.22 20.03,-13.86 4.86,-5.65 8.2,-12.21 10.01,-19.64 1.78,-7.45 2.69,-15.01 2.69,-22.71 v -65.45 h -23.1 c 0,32.84 -8.35,56.46 -25.02,70.84 -16.69,14.36 -40.43,21.56 -71.23,21.56 H 4609.25 V 875.879 h 200.2 v -34.66 h -200.2 v -211.75 h 131.67 c 28.22,0 52.23,6.281 71.99,18.871 19.76,12.57 36.31,35.539 49.67,68.922 l 20.78,-7.711 -22.32,-60.832 c -5.66,-16.43 -12.97,-29.52 -21.95,-39.27 -8.99,-9.75 -24,-14.629 -45.04,-14.629 h -284.91 v 408.11 c 0,23.1 -3.21,41.7 -9.62,55.82 -6.42,14.11 -21.18,21.17 -44.27,21.17 h -7.71 v 23.11 h 339.57"
         style="fill:#214074;fill-opacity:1;fill-rule:nonzero;stroke:none"
         id="path40" /><path
         d="m 5094.34,1072.23 c -6.16,0 -12.33,-0.27 -18.48,-0.77 -6.16,-0.52 -11.55,-1.29 -16.17,-2.31 -5.65,-1.03 -10.78,-1.81 -15.4,-2.31 V 858.16 h 46.2 c 12.32,0 24.64,1.801 36.96,5.399 12.33,3.582 23.48,9.492 33.5,17.711 10,8.199 18.09,19.25 24.26,33.109 6.15,13.851 9.24,30.801 9.24,50.82 0,20.02 -3.09,36.821 -9.24,50.441 -6.17,13.59 -14.14,24.63 -23.87,33.1 -9.76,8.47 -20.55,14.5 -32.34,18.1 -11.82,3.58 -23.37,5.39 -34.66,5.39 z m -19.25,-244.871 h -30.8 V 594.82 h -100.87 v 408.11 c 0,23.1 -3.21,41.7 -9.63,55.82 -6.42,14.11 -21.17,21.17 -44.28,21.17 h -7.69 v 23.11 h 212.52 c 12.32,0 25.91,-0.52 40.81,-1.54 14.88,-1.04 30.04,-3.34 45.43,-6.93 15.41,-3.6 30.41,-8.6 45.04,-15.02 14.63,-6.42 27.6,-14.89 38.89,-25.41 11.28,-10.53 20.41,-23.36 27.34,-38.49 6.93,-15.15 10.39,-33.249 10.39,-54.288 0,-20.02 -3.73,-37.352 -11.17,-51.973 -7.44,-14.629 -17.19,-26.957 -29.26,-36.969 -12.05,-10.012 -25.53,-18.09 -40.41,-24.262 -14.9,-6.16 -29.53,-11.039 -43.91,-14.617 l 80.86,-134.761 c 9.75,-16.43 19.12,-29.899 28.11,-40.418 8.96,-10.532 17.58,-18.872 25.8,-25.032 8.2,-6.148 15.78,-10.648 22.71,-13.468 6.92,-2.832 13.21,-4.75 18.87,-5.782 v -19.25 c -4.12,-2.039 -11.44,-3.84 -21.95,-5.39 -10.53,-1.539 -20.67,-2.301 -30.41,-2.301 -13.36,0 -26.33,1.801 -38.89,5.383 -12.6,3.59 -24.9,9.75 -36.97,18.488 -12.05,8.719 -24.12,20.27 -36.19,34.648 -12.05,14.364 -24.51,32.071 -37.35,53.122 l -76.99,128.589"
         style="fill:#214074;fill-opacity:1;fill-rule:nonzero;stroke:none"
         id="path42" /><path
         d="m 5527.08,581.738 c -21.05,0 -41.97,2.051 -62.76,6.153 -20.79,4.121 -39.4,10.14 -55.82,18.097 -16.44,7.961 -29.78,17.711 -40.04,29.262 -10.27,11.551 -15.4,24.512 -15.4,38.879 v 90.101 h 23.1 c 8.16,-53.398 24.61,-91.378 49.35,-113.968 24.74,-22.59 58.55,-33.871 101.4,-33.871 29.07,0 52.41,6.281 70.01,18.859 17.6,12.57 26.41,31.191 26.41,55.82 0,22.071 -7.07,40.43 -21.18,55.059 -14.12,14.633 -33.49,29.383 -58.13,44.269 l -94.71,56.981 c -34.91,20.531 -59.56,41.59 -73.93,63.152 -14.37,21.559 -21.55,46.449 -21.55,74.688 0,40.541 15.52,72.631 46.58,96.251 31.06,23.6 73.02,35.42 125.9,35.42 21.04,0 41.96,-2.06 62.76,-6.17 20.79,-4.11 39.38,-10.13 55.82,-18.09 16.42,-7.96 29.76,-17.71 40.03,-29.26 10.27,-11.54 15.41,-24.52 15.41,-38.89 v -90.082 h -23.1 c -8.67,53.383 -24.99,91.362 -48.96,113.962 -23.96,22.58 -55.33,33.88 -94.08,33.88 -27.56,0 -49.35,-6.68 -65.42,-20.02 -16.05,-13.36 -24.08,-31.57 -24.08,-54.67 0,-10.78 1.92,-20.409 5.77,-28.878 3.85,-8.461 9.24,-16.301 16.17,-23.481 6.94,-7.203 15.27,-14.121 25.02,-20.793 9.75,-6.679 20.79,-13.609 33.12,-20.796 l 94.71,-56.211 c 34.9,-20.532 60.44,-40.68 76.62,-60.442 16.16,-19.769 24.24,-43.769 24.24,-72 0,-44.148 -16.67,-79.051 -50.04,-104.711 -33.37,-25.668 -81.12,-38.5 -143.22,-38.5"
         style="fill:#214074;fill-opacity:1;fill-rule:nonzero;stroke:none"
         id="path44" /><path
         d="m 5781.95,1103.03 h 100.09 V 694.922 c 0,-23.09 3.21,-41.711 9.63,-55.82 6.41,-14.133 21.17,-21.18 44.28,-21.18 h 7.7 V 594.82 h -92.41 c -13.35,0 -24.52,1.551 -33.49,4.621 -8.99,3.079 -16.16,8.469 -21.56,16.18 -5.39,7.688 -9.12,17.949 -11.17,30.801 -2.05,12.816 -3.07,28.988 -3.07,48.5 v 408.108"
         style="fill:#214074;fill-opacity:1;fill-rule:nonzero;stroke:none"
         id="path46" /><path
         d="m 6367.13,1103.03 v -34.65 H 6206.2 V 594.82 h -100.09 v 473.56 h -54.67 c -27.22,0 -48.78,-6.82 -64.69,-20.41 -15.92,-13.6 -23.87,-37.61 -23.87,-71.99 h -23.09 v 65.45 c 0,7.7 0.89,15.26 2.69,22.71 1.79,7.43 5.12,13.99 10.01,19.64 4.88,5.64 11.55,10.26 20.02,13.86 8.47,3.58 19.37,5.39 32.73,5.39 h 361.89"
         style="fill:#214074;fill-opacity:1;fill-rule:nonzero;stroke:none"
         id="path48" /><path
         d="m 6645.87,860.48 149.38,242.55 h 50.05 L 6670.51,818.898 V 594.82 h -100.1 v 203.289 l -136.3,204.821 c -6.67,9.75 -14.12,19.5 -22.32,29.26 -8.22,9.74 -16.82,18.6 -25.8,26.56 -8.98,7.96 -18.09,14.5 -27.33,19.64 -9.24,5.13 -18.22,8.2 -26.95,9.24 v 15.4 h 83.93 c 14.36,0 27.84,-2.58 40.43,-7.71 12.57,-5.13 24.12,-11.8 34.65,-20.02 10.51,-8.21 20.02,-17.32 28.48,-27.33 8.48,-10.01 15.79,-19.89 21.95,-29.64 l 104.72,-157.85"
         style="fill:#214074;fill-opacity:1;fill-rule:nonzero;stroke:none"
         id="path50" /></g></g></svg>
