<?xml version="1.0" encoding="UTF-8"?>
<svg xmlns="http://www.w3.org/2000/svg" xmlns:xlink="http://www.w3.org/1999/xlink" width="25px" height="25px" viewBox="0 0 25 25" version="1.1">
<g id="surface1">
<path style=" stroke:none;fill-rule:nonzero;fill:rgb(100%,100%,100%);fill-opacity:1;" d="M 22.265625 20.703125 L 2.734375 20.703125 C 1.871094 20.703125 1.171875 20.003906 1.171875 19.140625 L 1.171875 5.859375 C 1.171875 4.996094 1.871094 4.296875 2.734375 4.296875 L 22.265625 4.296875 C 23.128906 4.296875 23.828125 4.996094 23.828125 5.859375 L 23.828125 19.140625 C 23.828125 20.003906 23.128906 20.703125 22.265625 20.703125 Z M 22.265625 20.703125 "/>
<path style=" stroke:none;fill-rule:nonzero;fill:rgb(92.54902%,93.72549%,94.509804%);fill-opacity:1;" d="M 23.15625 7.011719 L 12.5 14.300781 L 1.84375 7.011719 C 1.765625 6.957031 1.699219 6.890625 1.636719 6.828125 L 1.625 6.828125 L 15.464844 20.667969 L 22.285156 20.667969 C 23.132812 20.667969 23.828125 19.972656 23.828125 19.121094 L 23.828125 5.734375 C 23.828125 6.265625 23.5625 6.730469 23.15625 7.011719 Z M 23.15625 7.011719 "/>
<path style=" stroke:none;fill-rule:nonzero;fill:rgb(100%,54.117647%,50.196078%);fill-opacity:1;" d="M 23.828125 5.46875 L 23.828125 19.171875 C 23.828125 20.019531 23.144531 20.703125 22.296875 20.703125 L 21.09375 20.703125 L 21.09375 5.46875 Z M 23.828125 5.46875 "/>
<path style=" stroke:none;fill-rule:nonzero;fill:rgb(100%,54.117647%,50.196078%);fill-opacity:1;" d="M 1.171875 5.46875 L 1.171875 19.171875 C 1.171875 20.019531 1.855469 20.703125 2.703125 20.703125 L 3.90625 20.703125 L 3.90625 5.46875 Z M 1.171875 5.46875 "/>
<path style=" stroke:none;fill-rule:nonzero;fill:rgb(100%,54.117647%,50.196078%);fill-opacity:1;" d="M 22.28125 4.191406 L 12.5 10.882812 L 2.71875 4.191406 C 1.867188 4.191406 1.171875 4.886719 1.171875 5.734375 C 1.171875 6.265625 1.4375 6.730469 1.84375 7.007812 L 12.5 14.300781 L 23.15625 7.007812 C 23.5625 6.730469 23.828125 6.265625 23.828125 5.734375 C 23.828125 4.886719 23.132812 4.191406 22.28125 4.191406 Z M 22.28125 4.191406 "/>
<path style=" stroke:none;fill-rule:nonzero;fill:rgb(27.058824%,35.294118%,39.215686%);fill-opacity:1;" d="M 22.265625 21.09375 L 2.734375 21.09375 C 1.65625 21.09375 0.78125 20.21875 0.78125 19.140625 L 0.78125 5.859375 C 0.78125 5.644531 0.957031 5.46875 1.171875 5.46875 C 1.386719 5.46875 1.5625 5.644531 1.5625 5.859375 L 1.5625 19.140625 C 1.5625 19.785156 2.089844 20.3125 2.734375 20.3125 L 22.265625 20.3125 C 22.910156 20.3125 23.4375 19.785156 23.4375 19.140625 L 23.4375 5.859375 C 23.4375 5.214844 22.910156 4.6875 22.265625 4.6875 C 22.050781 4.6875 21.875 4.511719 21.875 4.296875 C 21.875 4.082031 22.050781 3.90625 22.265625 3.90625 C 23.34375 3.90625 24.21875 4.78125 24.21875 5.859375 L 24.21875 19.140625 C 24.21875 20.21875 23.34375 21.09375 22.265625 21.09375 Z M 22.265625 21.09375 "/>
<path style=" stroke:none;fill-rule:nonzero;fill:rgb(27.058824%,35.294118%,39.215686%);fill-opacity:1;" d="M 12.5 14.84375 C 12.421875 14.84375 12.34375 14.820312 12.277344 14.773438 L 1.613281 7.421875 C 1.09375 7.0625 0.78125 6.46875 0.78125 5.832031 C 0.78125 4.769531 1.644531 3.90625 2.707031 3.90625 L 22.289062 3.90625 C 23.355469 3.90625 24.21875 4.769531 24.21875 5.832031 C 24.21875 6.46875 23.90625 7.058594 23.386719 7.421875 L 12.722656 14.773438 C 12.65625 14.820312 12.578125 14.84375 12.5 14.84375 Z M 2.707031 4.6875 C 2.078125 4.6875 1.5625 5.203125 1.5625 5.832031 C 1.5625 6.210938 1.746094 6.5625 2.058594 6.777344 L 12.5 13.980469 L 22.941406 6.777344 C 23.253906 6.5625 23.4375 6.210938 23.4375 5.832031 C 23.4375 5.203125 22.921875 4.6875 22.292969 4.6875 Z M 2.707031 4.6875 "/>
</g>
</svg>
