<svg width="10" height="10" viewBox="0 0 10 10" fill="none" xmlns="http://www.w3.org/2000/svg">
<path d="M9.0625 4.77273H7.5V3.40909C7.5 2.65696 8.06055 2.04545 8.75 2.04545H8.90625C9.16602 2.04545 9.375 1.81747 9.375 1.53409V0.511364C9.375 0.227983 9.16602 0 8.90625 0H8.75C7.02344 0 5.625 1.52557 5.625 3.40909V8.52273C5.625 9.08736 6.04492 9.54545 6.5625 9.54545H9.0625C9.58008 9.54545 10 9.08736 10 8.52273V5.79545C10 5.23082 9.58008 4.77273 9.0625 4.77273ZM3.4375 4.77273H1.875V3.40909C1.875 2.65696 2.43555 2.04545 3.125 2.04545H3.28125C3.54102 2.04545 3.75 1.81747 3.75 1.53409V0.511364C3.75 0.227983 3.54102 0 3.28125 0H3.125C1.39844 0 0 1.52557 0 3.40909V8.52273C0 9.08736 0.419922 9.54545 0.9375 9.54545H3.4375C3.95508 9.54545 4.375 9.08736 4.375 8.52273V5.79545C4.375 5.23082 3.95508 4.77273 3.4375 4.77273Z" fill="#F2F2F2"/>
</svg>
