<svg width="10" height="10" viewBox="0 0 10 10" fill="none" xmlns="http://www.w3.org/2000/svg">
<path d="M9.0625 0H6.5625C6.04492 0 5.625 0.458097 5.625 1.02273V3.75C5.625 4.31463 6.04492 4.77273 6.5625 4.77273H8.125V6.13636C8.125 6.88849 7.56445 7.5 6.875 7.5H6.71875C6.45898 7.5 6.25 7.72798 6.25 8.01136V9.03409C6.25 9.31747 6.45898 9.54545 6.71875 9.54545H6.875C8.60156 9.54545 10 8.01989 10 6.13636V1.02273C10 0.458097 9.58008 0 9.0625 0ZM3.4375 0H0.9375C0.419922 0 0 0.458097 0 1.02273V3.75C0 4.31463 0.419922 4.77273 0.9375 4.77273H2.5V6.13636C2.5 6.88849 1.93945 7.5 1.25 7.5H1.09375C0.833984 7.5 0.625 7.72798 0.625 8.01136V9.03409C0.625 9.31747 0.833984 9.54545 1.09375 9.54545H1.25C2.97656 9.54545 4.375 8.01989 4.375 6.13636V1.02273C4.375 0.458097 3.95508 0 3.4375 0Z" fill="#F2F2F2"/>
</svg>
