<?xml version="1.0" encoding="UTF-8"?>
<svg xmlns="http://www.w3.org/2000/svg" xmlns:xlink="http://www.w3.org/1999/xlink" width="25px" height="25px" viewBox="0 0 25 25" version="1.1">
<g id="surface1">
<path style=" stroke:none;fill-rule:nonzero;fill:rgb(92.54902%,93.72549%,94.509804%);fill-opacity:1;" d="M 9.695312 22.023438 C 9.019531 22.023438 9.132812 21.765625 8.898438 21.125 L 6.914062 14.59375 L 22.195312 5.527344 Z M 9.695312 22.023438 "/>
<path style=" stroke:none;fill-rule:nonzero;fill:rgb(81.176471%,84.705882%,86.27451%);fill-opacity:1;" d="M 9.695312 22.023438 C 10.214844 22.023438 10.445312 21.785156 10.734375 21.5 L 13.511719 18.800781 L 10.046875 16.710938 Z M 9.695312 22.023438 "/>
<path style=" stroke:none;fill-rule:nonzero;fill:rgb(100%,100%,100%);fill-opacity:1;" d="M 10.046875 16.710938 L 18.445312 22.914062 C 19.402344 23.441406 20.09375 23.167969 20.332031 22.023438 L 23.75 5.917969 C 24.101562 4.515625 23.214844 3.878906 22.296875 4.296875 L 2.230469 12.035156 C 0.859375 12.585938 0.867188 13.347656 1.980469 13.6875 L 7.128906 15.296875 L 19.050781 7.773438 C 19.617188 7.433594 20.132812 7.617188 19.707031 7.992188 Z M 10.046875 16.710938 "/>
<path style=" stroke:none;fill-rule:nonzero;fill:rgb(27.058824%,35.294118%,39.215686%);fill-opacity:1;" d="M 19.285156 23.566406 C 18.972656 23.566406 18.628906 23.460938 18.253906 23.257812 L 9.816406 17.023438 C 9.722656 16.957031 9.664062 16.847656 9.65625 16.730469 C 9.652344 16.613281 9.699219 16.5 9.785156 16.421875 L 19.78125 7.425781 C 19.941406 7.28125 20.191406 7.292969 20.335938 7.453125 C 20.480469 7.613281 20.464844 7.859375 20.304688 8.003906 L 10.664062 16.679688 L 18.675781 22.601562 C 18.886719 22.714844 19.246094 22.855469 19.5 22.738281 C 19.757812 22.621094 19.886719 22.242188 19.949219 21.945312 L 23.367188 5.835938 C 23.5 5.304688 23.4375 4.878906 23.199219 4.679688 C 23.019531 4.53125 22.75 4.519531 22.460938 4.652344 L 2.371094 12.398438 C 1.753906 12.648438 1.558594 12.902344 1.5625 12.984375 C 1.566406 13.042969 1.699219 13.195312 2.09375 13.316406 L 7.074219 14.871094 L 12.542969 11.421875 C 12.726562 11.304688 12.964844 11.359375 13.082031 11.542969 C 13.195312 11.722656 13.140625 11.964844 12.957031 12.082031 L 7.339844 15.625 C 7.242188 15.6875 7.121094 15.703125 7.011719 15.667969 L 1.863281 14.0625 C 0.949219 13.78125 0.792969 13.289062 0.78125 13.019531 C 0.765625 12.648438 0.980469 12.113281 2.085938 11.671875 L 22.160156 3.933594 C 22.703125 3.683594 23.289062 3.738281 23.699219 4.082031 C 24.179688 4.480469 24.335938 5.183594 24.128906 6.015625 L 20.714844 22.105469 C 20.570312 22.792969 20.273438 23.246094 19.828125 23.449219 C 19.660156 23.527344 19.480469 23.566406 19.285156 23.566406 Z M 19.285156 23.566406 "/>
<path style=" stroke:none;fill-rule:nonzero;fill:rgb(27.058824%,35.294118%,39.215686%);fill-opacity:1;" d="M 19.285156 23.566406 C 18.972656 23.566406 18.628906 23.460938 18.253906 23.257812 L 13.003906 19.382812 C 12.832031 19.253906 12.792969 19.007812 12.921875 18.835938 C 13.050781 18.664062 13.296875 18.625 13.46875 18.753906 L 18.675781 22.601562 C 18.886719 22.714844 19.246094 22.855469 19.5 22.738281 C 19.757812 22.621094 19.886719 22.242188 19.949219 21.945312 L 23.367188 5.835938 C 23.5 5.304688 23.4375 4.878906 23.199219 4.679688 C 23.019531 4.53125 22.75 4.519531 22.460938 4.652344 L 2.371094 12.398438 C 1.753906 12.648438 1.558594 12.902344 1.5625 12.984375 C 1.566406 13.042969 1.699219 13.195312 2.09375 13.316406 L 7.246094 14.921875 C 7.367188 14.960938 7.464844 15.058594 7.503906 15.183594 L 9.273438 21.011719 C 9.320312 21.140625 9.359375 21.273438 9.390625 21.382812 C 9.414062 21.472656 9.445312 21.585938 9.46875 21.617188 C 9.464844 21.613281 9.527344 21.632812 9.695312 21.632812 C 10.042969 21.632812 10.175781 21.503906 10.441406 21.242188 L 11.738281 19.984375 C 11.894531 19.832031 12.140625 19.835938 12.289062 19.992188 C 12.441406 20.144531 12.4375 20.394531 12.28125 20.542969 L 11.007812 21.78125 C 10.695312 22.089844 10.359375 22.414062 9.695312 22.414062 C 8.929688 22.414062 8.773438 22.074219 8.636719 21.597656 C 8.609375 21.5 8.578125 21.386719 8.53125 21.257812 L 6.816406 15.609375 L 1.863281 14.0625 C 0.949219 13.78125 0.792969 13.289062 0.78125 13.019531 C 0.765625 12.648438 0.980469 12.113281 2.085938 11.671875 L 22.160156 3.933594 C 22.703125 3.683594 23.289062 3.738281 23.699219 4.082031 C 24.179688 4.480469 24.335938 5.183594 24.128906 6.015625 L 20.714844 22.105469 C 20.570312 22.792969 20.273438 23.246094 19.828125 23.449219 C 19.660156 23.527344 19.480469 23.566406 19.285156 23.566406 Z M 19.285156 23.566406 "/>
<path style=" stroke:none;fill-rule:nonzero;fill:rgb(27.058824%,35.294118%,39.215686%);fill-opacity:1;" d="M 14.453125 10.9375 C 14.453125 11.152344 14.277344 11.328125 14.0625 11.328125 C 13.847656 11.328125 13.671875 11.152344 13.671875 10.9375 C 13.671875 10.722656 13.847656 10.546875 14.0625 10.546875 C 14.277344 10.546875 14.453125 10.722656 14.453125 10.9375 Z M 14.453125 10.9375 "/>
</g>
</svg>
